# xmcd CD database file
#
# Track frame offsets:
#	150
#	17857
#	43450
#	54695
#	83805
#	105015
#	128982
#	142770
#	155502
#	172215
#	200060
#	211915
#	225530
#	244642
#	257340
#
# Disc length: 3593 seconds
#
# Revision: 0
# Processed by: cddbd v1.5PL3 Copyright (c) Steve Scherf et al.
# Submitted via: CDex 1.50beta10
#
DISCID=ca0e070f
DTITLE=Various Artist - 60 Great jazz Classics At The Movies disk 4
DYEAR=1995
DGENRE=Jazz
TTITLE0=Stanley Turrentine - A Taste Of Honey
TTITLE1=The Three Sounds - Secret Love
TTITLE2=Thad Jones Mel Lewis Orch - Theme From Hawaii
TTITLE3=Grant Green - Someday My Prince Will Come
TTITLE4=Jackie McLean - I Hear A Rhapsody
TTITLE5=Bill Evans Jim Hall - Skating In Central Park
TTITLE6=Stan Getz - The Way You Look Tonight
TTITLE7=Joe Pass - Phoenix Love Theme
TTITLE8=Billy Eckstine - In The Still Of The Night
TTITLE9=Kenny Dorham - Lets Face The Music and Dance
TTITLE10=Bud Powell - You'd Be Nice To Come Home To
TTITLE11=Loe Donaldson - Cheek To Cheek
TTITLE12=Gerry Muligan Chet Baker - My Heart Belongs To Daddy
TTITLE13=Coleman Hawkins - Someone To Watch Over Me
TTITLE14=Babs Gonzales - The Continental
EXTD=YEAR: 1995
EXTT0=
EXTT1=
EXTT2=
EXTT3=
EXTT4=
EXTT5=
EXTT6=
EXTT7=
EXTT8=
EXTT9=
EXTT10=
EXTT11=
EXTT12=
EXTT13=
EXTT14=
PLAYORDER=
